<svg viewBox="0 0 17.4992 13.5373" x="0" y="0" fill="none" xmlns="http://www.w3.org/2000/svg"><path id="Vector_4" fill-rule="evenodd" clip-rule="evenodd" d="M0.218,7.3268c-0.14,-0.1401 -0.22,-0.3303 -0.22,-0.5291c0,-0.1987 0.08,-0.3897 0.22,-0.5309l5.97,-6.0257c0.07,-0.074 0.15,-0.1334 0.25,-0.1748c0.09,-0.0414 0.19,-0.0638 0.29,-0.0661c0.1,-0.0022 0.2,0.0159 0.29,0.0533c0.1,0.0373 0.18,0.0931 0.25,0.164c0.07,0.0709 0.13,0.1555 0.17,0.2487c0.04,0.0932 0.06,0.1932 0.05,0.2939c0,0.1007 -0.02,0.2001 -0.06,0.2923c-0.04,0.0921 -0.1,0.1752 -0.17,0.2442l-4.7,4.7402l14.19,-0.0608c0.2,-0.0009 0.39,0.0773 0.53,0.2174c0.14,0.14 0.22,0.3304 0.22,0.5294c0,0.1989 -0.08,0.39 -0.22,0.5312c-0.14,0.1413 -0.33,0.2211 -0.53,0.222l-14.19,0.0607l4.74,4.6998c0.08,0.0683 0.14,0.1509 0.18,0.2427c0.04,0.0918 0.06,0.191 0.07,0.2917c0,0.1007 -0.02,0.2008 -0.06,0.2944c-0.03,0.0935 -0.09,0.1786 -0.16,0.2501c-0.07,0.0715 -0.16,0.1281 -0.25,0.1662c-0.09,0.0381 -0.19,0.057 -0.29,0.0557c-0.1,-0.0013 -0.2,-0.023 -0.3,-0.0636c-0.09,-0.0406 -0.17,-0.0993 -0.24,-0.1727z" fill="currentColor" xmlns="http://www.w3.org/2000/svg"/></svg>