<svg viewBox="0 0 446 32" x="0" y="0" fill="none" xmlns="http://www.w3.org/2000/svg"><defs><linearGradient id="paint0_linear_1_28087" x1="303.966" y1="10.979000000000042" x2="303.966" y2="20.95799999999997" gradientUnits="userSpaceOnUse" xmlns="http://www.w3.org/2000/svg">
<stop stop-color="#86BBE5"/>
<stop offset="1" stop-color="#1072BA"/>
</linearGradient><linearGradient id="paint1_linear_1_28087" x1="422" y1="6.66700000000003" x2="446" y2="6.66700000000003" gradientUnits="userSpaceOnUse" xmlns="http://www.w3.org/2000/svg">
<stop stop-color="#2B78B1"/>
<stop offset="1" stop-color="#338ACD"/>
</linearGradient><linearGradient id="paint2_linear_1_28087" x1="422" y1="27.375" x2="446" y2="27.375" gradientUnits="userSpaceOnUse" xmlns="http://www.w3.org/2000/svg">
<stop stop-color="#1B366F"/>
<stop offset="1" stop-color="#2657B0"/>
</linearGradient><linearGradient id="paint3_linear_1_28087" x1="432.5" y1="20" x2="446" y2="20" gradientUnits="userSpaceOnUse" xmlns="http://www.w3.org/2000/svg">
<stop stop-color="#20478B"/>
<stop offset="1" stop-color="#2D6FD1"/>
</linearGradient><linearGradient id="paint4_linear_1_28087" x1="432.5" y1="13" x2="446" y2="13" gradientUnits="userSpaceOnUse" xmlns="http://www.w3.org/2000/svg">
<stop stop-color="#215295"/>
<stop offset="1" stop-color="#2E84D3"/>
</linearGradient><linearGradient id="paint5_linear_1_28087" x1="414" y1="17" x2="433" y2="17" gradientUnits="userSpaceOnUse" xmlns="http://www.w3.org/2000/svg">
<stop stop-color="#223E74"/>
<stop offset="1" stop-color="#215091"/>
</linearGradient></defs><g id="Frame 2147224621" xmlns="http://www.w3.org/2000/svg">
<g id="figma">
<g id="figma_2">
<path id="vector" fill-rule="evenodd" clip-rule="evenodd" d="M16,16c0,-2.209 1.791,-4 4,-4c2.209,0 4,1.791 4,4c0,2.209 -1.791,4 -4,4c-2.209,0 -4,-1.791 -4,-4z" fill="#1ABCFE"/>
<path id="vector_2" fill-rule="evenodd" clip-rule="evenodd" d="M8,24c0,-2.209 1.791,-4 4,-4h4v4c0,2.209 -1.791,4 -4,4c-2.209,0 -4,-1.791 -4,-4z" fill="#0ACF83"/>
<path id="vector_3" fill-rule="evenodd" clip-rule="evenodd" d="M16,4v8h4c2.209,0 4,-1.791 4,-4c0,-2.209 -1.791,-4 -4,-4z" fill="#FF7262"/>
<path id="vector_4" fill-rule="evenodd" clip-rule="evenodd" d="M8,8c0,2.209 1.791,4 4,4h4v-8h-4c-2.209,0 -4,1.791 -4,4z" fill="#F24E1E"/>
<path id="vector_5" fill-rule="evenodd" clip-rule="evenodd" d="M8,16c0,2.209 1.791,4 4,4h4v-8h-4c-2.209,0 -4,1.791 -4,4z" fill="#A259FF"/>
</g>
</g>
<g id="sketch">
<g id="sketch_2">
<path id="vector_6" fill-rule="evenodd" clip-rule="evenodd" d="M50.109,4.79l7.891,-0.79l7.891,0.79l6.109,7.768l-14,15.442l-14,-15.442z" fill="#FDB300"/>
<path id="vector_7" d="M49.671,12.558l8.329,15.442l-14,-15.442zM66.329,12.558l-8.329,15.442l14,-15.442" fill="#EA6C00"/>
<path id="vector_8" fill-rule="evenodd" clip-rule="evenodd" d="M49.671,12.558h16.658l-8.329,15.442" fill="#FDAD00"/>
<path id="vector_9" d="M58,4l-7.891,0.79l-0.438,7.768zM58,4l7.891,0.79l0.439,7.768" fill="#FDD231"/>
<path id="vector_10" d="M72,12.558l-6.109,-7.768l0.438,7.768zM44,12.558l6.109,-7.768l-0.438,7.768" fill="#FDAD00"/>
<path id="vector_11" fill-rule="evenodd" clip-rule="evenodd" d="M58,4l-8.329,8.558h16.658" fill="#FEEEB7"/>
</g>
</g>
<g id="framer">
<path id="bg" fill-rule="evenodd" clip-rule="evenodd" d="M100,30c7.732,0 14,-6.268 14,-14c0,-7.732 -6.268,-14 -14,-14c-7.732,0 -14,6.268 -14,14c0,7.732 6.268,14 14,14z" fill="white"/>
<g id="framer_2">
<path id="vector_12" fill-rule="evenodd" clip-rule="evenodd" d="M93,20.333h7v6.667z" fill="#0055FF"/>
<path id="vector_13" d="M100,13.667h-7v6.667h14z" fill="#00AAFF"/>
<path id="vector_14" d="M93,7l7,6.667h7v-6.667z" fill="#88DDFF"/>
</g>
</g>
<g id="slack">
<path id="vector_15" d="M149.5,15c1.381,0 2.5,-1.12 2.5,-2.5c0,-1.381 -1.119,-2.5 -2.5,-2.5c-1.381,0 -2.5,1.119 -2.5,2.5v2.5zM142.5,15c1.381,0 2.5,-1.12 2.5,-2.5v-7c0,-1.381 -1.119,-2.5 -2.5,-2.5c-1.381,0 -2.5,1.119 -2.5,2.5v7c0,1.38 1.119,2.5 2.5,2.5z" fill="#2EB67D"/>
<path id="vector_16" d="M128.5,17c-1.381,0 -2.5,1.12 -2.5,2.5c0,1.381 1.119,2.5 2.5,2.5c1.381,0 2.5,-1.119 2.5,-2.5v-2.5zM135.5,17c-1.381,0 -2.5,1.12 -2.5,2.5v7c0,1.381 1.119,2.5 2.5,2.5c1.381,0 2.5,-1.119 2.5,-2.5v-7c0,-1.38 -1.119,-2.5 -2.5,-2.5z" fill="#E01E5A"/>
<path id="vector_17" d="M140,26.5c0,1.381 1.12,2.5 2.5,2.5c1.381,0 2.5,-1.119 2.5,-2.5c0,-1.381 -1.119,-2.5 -2.5,-2.5h-2.5zM140,19.5c0,1.381 1.12,2.5 2.5,2.5h7c1.381,0 2.5,-1.119 2.5,-2.5c0,-1.381 -1.119,-2.5 -2.5,-2.5h-7c-1.38,0 -2.5,1.119 -2.5,2.5z" fill="#ECB22E"/>
<path id="vector_18" d="M138,5.5c0,-1.381 -1.12,-2.5 -2.5,-2.5c-1.381,0 -2.5,1.119 -2.5,2.5c0,1.381 1.119,2.5 2.5,2.5h2.5zM138,12.5c0,-1.381 -1.12,-2.5 -2.5,-2.5h-7c-1.381,0 -2.5,1.119 -2.5,2.5c0,1.381 1.119,2.5 2.5,2.5h7c1.38,0 2.5,-1.119 2.5,-2.5z" fill="#36C5F0"/>
</g>
<g id="adobe_illustrator">
<path id="bg_2" d="M164,12.133c0,-3.547 0,-5.32 0.69,-6.675c0.607,-1.192 1.576,-2.161 2.768,-2.768c1.355,-0.69 3.128,-0.69 6.675,-0.69h7.734c3.547,0 5.32,0 6.675,0.69c1.192,0.607 2.161,1.576 2.768,2.768c0.69,1.355 0.69,3.128 0.69,6.675v7.734c0,3.547 0,5.32 -0.69,6.675c-0.607,1.192 -1.576,2.161 -2.768,2.768c-1.355,0.69 -3.128,0.69 -6.675,0.69h-7.734c-3.547,0 -5.32,0 -6.675,-0.69c-1.192,-0.607 -2.161,-1.576 -2.768,-2.768c-0.69,-1.355 -0.69,-3.128 -0.69,-6.675z" fill="#330000"/>
<g id="Vector">
<path d="M177.569,19.596h-4.339l-0.883,2.813c-0.025,0.104 -0.121,0.178 -0.226,0.173h-2.197c-0.125,0 -0.169,-0.07 -0.132,-0.212l3.757,-11.096c0.038,-0.116 0.075,-0.247 0.113,-0.395c0.049,-0.257 0.074,-0.518 0.075,-0.78c-0.011,-0.078 0.057,-0.146 0.131,-0.135h2.987c0.087,0 0.137,0.032 0.15,0.096l4.264,12.33c0.038,0.128 0,0.192 -0.113,0.192h-2.442c-0.085,0.01 -0.167,-0.049 -0.187,-0.135zM173.906,17.169h2.968c-0.488,-1.666 -1.038,-3.311 -1.484,-4.99c-0.481,1.682 -1.006,3.357 -1.484,4.99z" fill="#FF9A00"/>
<path d="M183.804,12.006c-0.191,0.008 -0.382,-0.026 -0.56,-0.099c-0.178,-0.073 -0.339,-0.184 -0.473,-0.325c-0.133,-0.147 -0.236,-0.32 -0.304,-0.509c-0.067,-0.188 -0.098,-0.388 -0.09,-0.589c-0.007,-0.199 0.027,-0.397 0.1,-0.581c0.073,-0.184 0.183,-0.351 0.323,-0.488c0.138,-0.137 0.301,-0.243 0.48,-0.314c0.179,-0.072 0.37,-0.106 0.562,-0.101c0.451,0 0.805,0.139 1.061,0.415c0.13,0.143 0.231,0.311 0.297,0.495c0.066,0.183 0.096,0.378 0.088,0.574c0.008,0.201 -0.024,0.402 -0.093,0.591c-0.069,0.189 -0.175,0.361 -0.31,0.507c-0.142,0.143 -0.311,0.255 -0.497,0.328c-0.186,0.073 -0.385,0.105 -0.584,0.096zM182.508,22.39v-9.209c0,-0.116 0.05,-0.173 0.151,-0.173h2.31c0.1,0 0.15,0.057 0.15,0.173v9.209c0,0.128 -0.05,0.192 -0.15,0.192h-2.292c-0.112,0 -0.169,-0.064 -0.169,-0.192z" fill="#FF9A00"/>
</g>
</g>
<g id="adobe_photoshop">
<path id="bg_3" d="M206,12.133c0,-3.547 0,-5.32 0.69,-6.675c0.607,-1.192 1.576,-2.161 2.768,-2.768c1.355,-0.69 3.128,-0.69 6.675,-0.69h7.734c3.547,0 5.32,0 6.675,0.69c1.192,0.607 2.161,1.576 2.768,2.768c0.69,1.355 0.69,3.128 0.69,6.675v7.734c0,3.547 0,5.32 -0.69,6.675c-0.607,1.192 -1.576,2.161 -2.768,2.768c-1.355,0.69 -3.128,0.69 -6.675,0.69h-7.734c-3.547,0 -5.32,0 -6.675,-0.69c-1.192,-0.607 -2.161,-1.576 -2.768,-2.768c-0.69,-1.355 -0.69,-3.128 -0.69,-6.675z" fill="#001E36"/>
<g id="Vector_2">
<path d="M212,22.516v-12.313c0,-0.083 0.035,-0.131 0.117,-0.131c1.205,0 2.41,-0.072 3.616,-0.072c1.957,0 4.076,0.669 4.819,2.716c0.175,0.503 0.268,1.017 0.268,1.556c0,1.029 -0.233,1.878 -0.7,2.549c-1.304,1.871 -3.563,1.842 -5.588,1.842v3.841c0.016,0.114 -0.081,0.168 -0.175,0.168h-2.217c-0.093,0 -0.14,-0.048 -0.14,-0.156zM214.543,12.381v4.021c0.803,0.059 1.644,0.065 2.415,-0.192c0.852,-0.245 1.319,-0.983 1.319,-1.866c0.023,-0.753 -0.387,-1.476 -1.085,-1.747c-0.763,-0.317 -1.826,-0.336 -2.649,-0.216z" fill="#31A8FF"/>
<path d="M228.097,15.607c-0.353,-0.186 -0.729,-0.322 -1.118,-0.404c-0.499,-0.118 -2.469,-0.529 -2.47,0.501c0.018,0.575 0.93,0.856 1.334,1.021c1.415,0.486 3.018,1.355 2.986,3.101c0.043,2.175 -2.063,3.044 -3.869,3.044c-0.94,0.01 -1.92,-0.136 -2.78,-0.539c-0.082,-0.044 -0.135,-0.137 -0.132,-0.231v-2.081c-0.009,-0.083 0.081,-0.156 0.151,-0.096c0.843,0.51 1.842,0.757 2.817,0.77c0.431,0 1.284,-0.041 1.277,-0.674c0,-0.607 -1.02,-0.886 -1.427,-1.04c-0.59,-0.211 -1.149,-0.502 -1.662,-0.867c-0.718,-0.512 -1.168,-1.332 -1.156,-2.235c-0.004,-2.047 1.935,-2.966 3.682,-2.967c0.816,-0.006 1.693,0.054 2.453,0.386c0.109,0.032 0.132,0.147 0.132,0.25v1.946c0.007,0.121 -0.128,0.162 -0.218,0.115z" fill="#31A8FF"/>
</g>
</g>
<g id="adobe_xd">
<path id="bg_4" d="M248,12.133c0,-3.547 0,-5.32 0.69,-6.675c0.607,-1.192 1.576,-2.161 2.768,-2.768c1.355,-0.69 3.128,-0.69 6.675,-0.69h7.734c3.547,0 5.32,0 6.675,0.69c1.192,0.607 2.161,1.576 2.768,2.768c0.69,1.355 0.69,3.128 0.69,6.675v7.734c0,3.547 0,5.32 -0.69,6.675c-0.607,1.192 -1.576,2.161 -2.768,2.768c-1.355,0.69 -3.128,0.69 -6.675,0.69h-7.734c-3.547,0 -5.32,0 -6.675,-0.69c-1.192,-0.607 -2.161,-1.576 -2.768,-2.768c-0.69,-1.355 -0.69,-3.128 -0.69,-6.675z" fill="#470137"/>
<g id="Vector_3">
<path d="M262.646,10.234l-3.493,5.914l3.738,6.281c0.077,0.142 0,0.173 -0.113,0.173h-2.667c-0.188,0 -0.32,-0.006 -0.395,-0.135c-0.25,-0.501 -0.501,-0.998 -0.751,-1.493c-0.251,-0.494 -0.517,-0.998 -0.798,-1.512c-0.282,-0.514 -0.561,-1.034 -0.836,-1.561c-0.251,0.514 -0.529,1.028 -0.799,1.541c-0.269,0.514 -0.535,1.025 -0.798,1.532c-0.263,0.508 -0.532,1.012 -0.807,1.512c-0.051,0.116 -0.138,0.128 -0.263,0.128h-2.574c-0.101,0 -0.113,-0.076 -0.056,-0.166l3.625,-6.107l-3.531,-6.126c-0.064,-0.088 -0.009,-0.181 0.094,-0.174h2.648c0.115,-0.006 0.216,0.037 0.282,0.135c0.225,0.514 0.476,1.028 0.751,1.541c0.276,0.514 0.554,1.021 0.836,1.522c0.282,0.501 0.56,1.008 0.798,1.522c0.251,-0.526 0.504,-1.04 0.761,-1.541c0.257,-0.501 0.52,-1.005 0.789,-1.512c0.269,-0.508 0.529,-1.012 0.78,-1.513c0.033,-0.11 0.112,-0.165 0.225,-0.154h2.461c0.093,0 0.132,0.128 0.093,0.193z" fill="#FF61F6"/>
<path d="M268.037,22.853c-1.656,0.025 -3.391,-0.657 -4.264,-2.168c-0.426,-0.725 -0.638,-1.634 -0.638,-2.726c-0.007,-0.884 0.213,-1.754 0.638,-2.524c1.098,-1.962 3.309,-2.697 5.41,-2.504v-3.795c0,-0.09 0.037,-0.135 0.113,-0.135h2.366c0.065,-0.009 0.122,0.049 0.113,0.116v11.385c0,0.47 0.047,0.938 0.075,1.407c0.005,0.08 -0.042,0.159 -0.113,0.192c-1.169,0.5 -2.434,0.746 -3.7,0.752zM269.183,20.464v-5.26c-1.716,-0.476 -3.381,0.83 -3.381,2.64c-0.041,1.87 1.572,3.162 3.381,2.62z" fill="#FF61F6"/>
</g>
</g>
<g id="chrome">
<g id="Group">
<path id="vector_19" d="M304.001,2.003c0,0 8.252,-0.369 12.627,7.897h-13.33c0,0 -2.515,-0.081 -4.664,2.96c-0.617,1.276 -1.281,2.591 -0.536,5.182c-1.073,-1.811 -5.695,-9.83 -5.695,-9.83c0,0 3.26,-5.882 11.597,-6.209z" fill="#EF3F36"/>
<path id="vector_20" d="M316.199,22.985c0,0 -3.807,7.308 -13.175,6.947c1.158,-1.995 6.667,-11.502 6.667,-11.502c0,0 1.331,-2.13 -0.239,-5.505c-0.799,-1.172 -1.613,-2.399 -4.236,-3.052c2.11,-0.019 11.389,0 11.389,0c0,0 3.475,5.755 -0.406,13.112z" fill="#FCD900"/>
<path id="vector_21" d="M291.859,23.043c0,0 -4.448,-6.939 0.552,-14.843c1.154,1.995 6.663,11.502 6.663,11.502c0,0 1.188,2.215 4.903,2.545c1.416,-0.104 2.89,-0.192 4.773,-2.126c-1.038,1.83 -5.695,9.826 -5.695,9.826c0,0 -6.744,0.123 -11.196,-6.904z" fill="#61BC5B"/>
<path id="vector_22" d="M303.021,30.001l1.874,-7.796c0,0 2.061,-0.161 3.789,-2.049c-1.072,1.88 -5.663,9.845 -5.663,9.845z" fill="#5AB055"/>
<path id="vector_23" d="M297.72,16.089c0,-3.437 2.797,-6.224 6.246,-6.224c3.449,0 6.246,2.787 6.246,6.224c0,3.437 -2.797,6.224 -6.246,6.224c-3.449,-0.004 -6.246,-2.787 -6.246,-6.224z" fill="white"/>
<path id="vector_24" d="M298.766,16.088c0,-2.86 2.326,-5.182 5.2,-5.182c2.871,0 5.201,2.318 5.201,5.182c0,2.86 -2.326,5.182 -5.201,5.182c-2.87,0 -5.2,-2.322 -5.2,-5.182z" fill="url(#paint0_linear_1_28087)"/>
<path id="vector_25" d="M316.601,9.876l-7.72,2.257c0,0 -1.165,-1.703 -3.669,-2.257c2.172,-0.011 11.389,0 11.389,0z" fill="#EACA05"/>
<path id="vector_26" d="M297.947,17.757c-1.084,-1.872 -5.544,-9.545 -5.544,-9.545l5.718,5.636c0,0 -0.587,1.203 -0.367,2.925l0.193,0.984z" fill="#DF3A32"/>
</g>
</g>
<g id="pinterest">
<circle id="bg_5" cx="346" cy="16" r="14" fill="white"/>
<path id="pin" d="M346,30c7.732,0 14,-6.268 14,-14c0,-7.732 -6.268,-14 -14,-14c-7.732,0 -14,6.268 -14,14c0,5.68 3.383,10.57 8.243,12.766c0.007,-0.152 0.014,-0.291 0.021,-0.41c0.008,-0.162 0.015,-0.288 0.015,-0.358c0,-0.421 0.286,-2.508 0.286,-2.508l1.75,-7.185c-0.269,-0.437 -0.471,-1.363 -0.471,-2.069c0,-3.265 1.817,-3.972 2.928,-3.972c1.413,0 1.733,1.532 1.733,2.659c0,0.596 -0.31,1.53 -0.628,2.49c-0.337,1.018 -0.685,2.067 -0.685,2.777c0,1.38 1.363,2.07 2.306,2.07c2.49,0 4.778,-3.13 4.778,-6.26c0,-3.13 -1.463,-6.916 -6.259,-6.916c-4.796,0 -6.95,3.652 -6.95,6.445c0,1.884 0.707,3.264 1.06,3.5c0.101,0.09 0.273,0.367 0.152,0.757c-0.121,0.39 -0.342,1.262 -0.438,1.649c-0.011,0.09 -0.117,0.242 -0.454,0.135c-0.421,-0.135 -3.096,-1.818 -3.096,-6.041c0,-4.224 3.315,-9.137 9.726,-9.137c6.411,0 9.692,4.308 9.692,9.608c0,5.3 -4.291,8.683 -7.555,8.683c-2.612,0 -3.635,-1.167 -3.82,-1.75l-0.993,3.786c-0.234,0.628 -0.671,1.757 -1.211,2.739c1.229,0.353 2.528,0.542 3.87,0.542z" fill="#BB0F23"/>
</g>
<g id="notion">
<path id="bg_6" fill-rule="evenodd" clip-rule="evenodd" d="M377.716,29.218l-3.439,-4.285c-0.828,-1.031 -1.277,-2.298 -1.277,-3.603v-15.515c0,-1.954 1.564,-3.576 3.581,-3.714l15.951,-1.089c1.159,-0.079 2.311,0.229 3.263,0.873l5.604,3.789c1.003,0.678 1.601,1.787 1.601,2.97v17.639c0,1.913 -1.537,3.496 -3.512,3.618l-17.705,1.09c-1.576,0.097 -3.099,-0.567 -4.067,-1.773z" fill="white"/>
<g id="vector_27">
<path d="M383.248,13.578v-0.203c0,-0.515 0.412,-0.942 0.944,-0.977l3.871,-0.259l5.354,7.884v-6.919l-1.378,-0.184v-0.097c0,-0.52 0.422,-0.95 0.96,-0.978l3.523,-0.18v0.507c0,0.238 -0.177,0.441 -0.42,0.482l-0.848,0.143v11.206l-1.063,0.366c-0.889,0.306 -1.879,-0.021 -2.387,-0.789l-5.198,-7.843v7.485l1.6,0.307l-0.022,0.148c-0.07,0.465 -0.472,0.816 -0.957,0.838l-3.979,0.177c-0.053,-0.5 0.322,-0.947 0.839,-1.001l0.523,-0.055v-9.981z" fill="black"/>
<path fill-rule="evenodd" clip-rule="evenodd" d="M392.675,2.966l-15.952,1.089c-0.955,0.066 -1.696,0.834 -1.696,1.76v15.514c0,0.87 0.3,1.715 0.851,2.403l3.44,4.284c0.556,0.693 1.431,1.074 2.336,1.019l17.705,-1.09c0.907,-0.056 1.613,-0.784 1.613,-1.662v-17.639c0,-0.544 -0.274,-1.053 -0.735,-1.365l-5.605,-3.789c-0.571,-0.386 -1.262,-0.571 -1.957,-0.524zM377.514,6.057c-0.221,-0.165 -0.116,-0.507 0.163,-0.527l15.105,-1.083c0.481,-0.035 0.96,0.098 1.349,0.373l3.031,2.148c0.115,0.081 0.061,0.257 -0.082,0.265l-15.996,0.87c-0.484,0.026 -0.962,-0.116 -1.347,-0.401zM380.334,10.83c0,-0.519 0.419,-0.949 0.956,-0.978l16.913,-0.921c0.523,-0.029 0.964,0.374 0.964,0.88v15.274c0,0.519 -0.419,0.947 -0.954,0.978l-16.806,0.956c-0.582,0.033 -1.073,-0.414 -1.073,-0.978z" fill="black"/>
</g>
</g>
<g id="ms_word">
<g id="word">
<rect id="rectangle" x="422" y="2" width="24" height="28" rx="2" fill="url(#paint1_linear_1_28087)"/>
<path id="rectangle_2" d="M422,23h24v5c0,1.105 -0.895,2 -2,2h-20c-1.105,0 -2,-0.895 -2,-2z" fill="url(#paint2_linear_1_28087)"/>
<rect id="rectangle_3" x="422" y="16" width="24" height="7" fill="url(#paint3_linear_1_28087)"/>
<rect id="rectangle_4" x="422" y="9" width="24" height="7" fill="url(#paint4_linear_1_28087)"/>
<path id="rectangle_5" d="M422,12c0,-1.657 1.343,-3 3,-3h6c1.657,0 3,1.343 3,3v12c0,1.657 -1.343,3 -3,3h-9z" fill="black" fill-opacity="0.3"/>
<rect id="rectangle_6" x="414" y="7" width="18" height="18" rx="2" fill="url(#paint5_linear_1_28087)"/>
<path id="W" d="M429,11.014h-1.948l-1.529,6.525l-1.673,-6.539h-1.647l-1.687,6.539l-1.516,-6.525h-2l2.601,9.986h1.726l1.673,-6.312l1.673,6.312h1.726z" fill="white"/>
</g>
</g>
</g></svg>